<svg width="64" height="51" viewBox="0 0 64 51" fill="none" xmlns="http://www.w3.org/2000/svg">
<g clip-path="url(#clip0_0_169)">
<path opacity="0.4" d="M49.794 22.5057L28.606 1.40051C27.7059 0.503836 26.485 5.94662e-05 25.212 0L4.8 0C3.52696 0 2.30606 0.503737 1.40589 1.4004C0.505713 2.29705 0 3.51318 0 4.78125L0 25.1135C5.96994e-05 26.3816 0.505812 27.5976 1.406 28.4943L22.594 49.5995C23.4942 50.4961 24.715 50.9998 25.988 50.9998C27.261 50.9998 28.4818 50.4961 29.382 49.5995L49.794 29.2672C50.6941 28.3706 51.1998 27.1545 51.1998 25.8865C51.1998 24.6185 50.6941 23.4024 49.794 22.5057ZM11.2 15.9375C10.2507 15.9375 9.32262 15.6571 8.53326 15.1317C7.74391 14.6063 7.12868 13.8596 6.76538 12.986C6.40208 12.1123 6.30702 11.1509 6.49223 10.2235C6.67744 9.296 7.1346 8.44407 7.80589 7.7754C8.47718 7.10673 9.33246 6.65136 10.2636 6.46687C11.1947 6.28238 12.1598 6.37707 13.0369 6.73895C13.914 7.10083 14.6636 7.71366 15.1911 8.49993C15.7185 9.2862 16 10.2106 16 11.1562C16 12.4243 15.4943 13.6404 14.5941 14.5371C13.6939 15.4338 12.473 15.9375 11.2 15.9375Z" fill="#286EF1"/>
<path d="M62.5942 29.2672L42.1821 49.5995C41.282 50.4961 40.0611 50.9998 38.7881 50.9998C37.5152 50.9998 36.2943 50.4961 35.3941 49.5995L35.3581 49.5636L52.7642 32.2256C53.5999 31.3932 54.2628 30.4049 54.7151 29.3172C55.1674 28.2295 55.4002 27.0638 55.4002 25.8865C55.4002 24.7092 55.1674 23.5434 54.7151 22.4558C54.2628 21.3681 53.5999 20.3798 52.7642 19.5473L33.1401 0H38.0121C39.2852 5.94662e-05 40.506 0.503836 41.4061 1.40051L62.5942 22.5057C63.4943 23.4024 63.9999 24.6185 63.9999 25.8865C63.9999 27.1545 63.4943 28.3706 62.5942 29.2672Z" fill="#286EF1"/>
<path d="M20.7109 21.4141V20.8125C20.7109 20.3802 20.8047 19.987 20.9922 19.6328C21.1797 19.2786 21.4609 18.9948 21.8359 18.7812C22.2109 18.5677 22.6771 18.4609 23.2344 18.4609C23.8073 18.4609 24.2812 18.5677 24.6562 18.7812C25.0312 18.9948 25.3099 19.2786 25.4922 19.6328C25.6797 19.987 25.7734 20.3802 25.7734 20.8125V21.4141C25.7734 21.8359 25.6797 22.224 25.4922 22.5781C25.3099 22.9323 25.0312 23.2161 24.6562 23.4297C24.2865 23.6432 23.8203 23.75 23.2578 23.75C22.6901 23.75 22.2188 23.6432 21.8438 23.4297C21.4688 23.2161 21.1849 22.9323 20.9922 22.5781C20.8047 22.224 20.7109 21.8359 20.7109 21.4141ZM22.3984 20.8125V21.4141C22.3984 21.5703 22.4297 21.7188 22.4922 21.8594C22.5547 22 22.6484 22.1146 22.7734 22.2031C22.9036 22.2865 23.0625 22.3281 23.25 22.3281C23.4427 22.3281 23.599 22.2865 23.7188 22.2031C23.8385 22.1146 23.9271 22 23.9844 21.8594C24.0469 21.7188 24.0781 21.5703 24.0781 21.4141V20.8125C24.0781 20.6458 24.0469 20.4922 23.9844 20.3516C23.9271 20.2109 23.8359 20.099 23.7109 20.0156C23.5859 19.9271 23.4271 19.8828 23.2344 19.8828C23.0521 19.8828 22.8984 19.9271 22.7734 20.0156C22.6484 20.099 22.5547 20.2109 22.4922 20.3516C22.4297 20.4922 22.3984 20.6458 22.3984 20.8125ZM26.1094 27.8125V27.2109C26.1094 26.7839 26.2031 26.3932 26.3906 26.0391C26.5833 25.6849 26.8672 25.401 27.2422 25.1875C27.6224 24.974 28.0911 24.8672 28.6484 24.8672C29.2214 24.8672 29.6927 24.974 30.0625 25.1875C30.4375 25.401 30.7161 25.6849 30.8984 26.0391C31.0859 26.3932 31.1797 26.7839 31.1797 27.2109V27.8125C31.1797 28.2396 31.0859 28.6302 30.8984 28.9844C30.7161 29.3385 30.4401 29.6224 30.0703 29.8359C29.7005 30.0495 29.2344 30.1562 28.6719 30.1562C28.1042 30.1562 27.6302 30.0495 27.25 29.8359C26.8698 29.6224 26.5833 29.3385 26.3906 28.9844C26.2031 28.6302 26.1094 28.2396 26.1094 27.8125ZM27.8047 27.2109V27.8125C27.8047 27.974 27.8438 28.125 27.9219 28.2656C28 28.4062 28.1042 28.5208 28.2344 28.6094C28.3646 28.6927 28.5078 28.7344 28.6641 28.7344C28.9036 28.7344 29.0807 28.6927 29.1953 28.6094C29.3151 28.5208 29.3932 28.4062 29.4297 28.2656C29.4714 28.125 29.4922 27.974 29.4922 27.8125V27.2109C29.4922 27.0495 29.4609 26.8984 29.3984 26.7578C29.3359 26.6172 29.2422 26.5052 29.1172 26.4219C28.9922 26.3333 28.8359 26.2891 28.6484 26.2891C28.4609 26.2891 28.3047 26.3333 28.1797 26.4219C28.0547 26.5052 27.9609 26.6172 27.8984 26.7578C27.8359 26.8984 27.8047 27.0495 27.8047 27.2109ZM29.3047 20.2578L23.75 29.1484L22.5234 28.5312L28.0781 19.6406L29.3047 20.2578Z" fill="white"/>
</g>
<defs>
<clipPath id="clip0_0_169">
<rect width="64" height="51" fill="white"/>
</clipPath>
</defs>
</svg>
